<?xml version="1.0" encoding="UTF-8"?><svg xmlns="http://www.w3.org/2000/svg" viewBox="0 0 1801.33 942.68"><defs><style>.d{letter-spacing:-.02em;}.e{letter-spacing:-.04em;}.f{letter-spacing:-.04em;}.g{letter-spacing:-.02em;}.h{letter-spacing:0em;}.i{letter-spacing:0em;}.j{letter-spacing:0em;}.k{letter-spacing:0em;}.l{letter-spacing:0em;}.m{letter-spacing:-.01em;}.n{letter-spacing:0em;}.o{letter-spacing:0em;}.p{letter-spacing:-.01em;}.q{letter-spacing:0em;}.r{letter-spacing:0em;}.s{letter-spacing:0em;}.t{letter-spacing:0em;}.u{letter-spacing:0em;}.v{letter-spacing:0em;}.w{letter-spacing:0em;}.x{letter-spacing:0em;}.y{letter-spacing:-.01em;}.a`{letter-spacing:-.01em;}.aa{letter-spacing:0em;}.ab{letter-spacing:0em;}.ac{letter-spacing:-.01em;}.ad{letter-spacing:-.02em;}.ae{letter-spacing:0em;}.af{font-family:IBMPlexSans-SemiBold, IBM Plex Sans;font-size:36px;}</style></defs><g id="a"/><g id="b"><g id="c"><text class="af" transform="translate(131.65 90.61) scale(.79 1)"><tspan x="0" y="0">Indu</tspan><tspan class="x" x="79.16" y="0">s</tspan><tspan x="96.84" y="0">tries </tspan><tspan class="m" x="180.93" y="0">e</tspan><tspan x="200.48" y="0">xt</tspan><tspan class="y" x="233.53" y="0">r</tspan><tspan x="247.28" y="0">acti</tspan><tspan class="x" x="309.27" y="0">v</tspan><tspan x="327.85" y="0">es - Cad</tspan><tspan class="ae" x="462.2" y="0">r</tspan><tspan x="476.16" y="0">e supérieur et m</tspan><tspan class="k" x="747.57" y="0">o</tspan><tspan class="o" x="767.51" y="0">y</tspan><tspan x="786.12" y="0">en</tspan></text><text class="af" transform="translate(662.32 173.56) scale(.79 1)"><tspan x="0" y="0">Indu</tspan><tspan class="x" x="79.16" y="0">s</tspan><tspan x="96.84" y="0">tries </tspan><tspan class="m" x="180.93" y="0">e</tspan><tspan x="200.48" y="0">xt</tspan><tspan class="y" x="233.53" y="0">r</tspan><tspan x="247.28" y="0">acti</tspan><tspan class="x" x="309.27" y="0">v</tspan><tspan x="327.85" y="0">es - Cad</tspan><tspan class="ae" x="462.2" y="0">r</tspan><tspan x="476.16" y="0">e in</tspan><tspan class="u" x="535.85" y="0">f</tspan><tspan x="548.31" y="0">érieur</tspan></text><text class="af" transform="translate(951.66 30.56) scale(.79 1)"><tspan x="0" y="0">Indu</tspan><tspan class="x" x="79.16" y="0">s</tspan><tspan x="96.84" y="0">tries </tspan><tspan class="m" x="180.93" y="0">e</tspan><tspan x="200.48" y="0">xt</tspan><tspan class="y" x="233.53" y="0">r</tspan><tspan x="247.28" y="0">acti</tspan><tspan class="x" x="309.27" y="0">v</tspan><tspan x="327.85" y="0">es - </tspan><tspan class="ac" x="397.36" y="0">R</tspan><tspan x="420.73" y="0">esponsable de l</tspan><tspan class="g" x="681.43" y="0">&apos;</tspan><tspan class="m" x="690.07" y="0">ex</tspan><tspan x="728.67" y="0">écution des t</tspan><tspan class="a`" x="943.33" y="0">r</tspan><tspan class="k" x="957.08" y="0">av</tspan><tspan x="995.42" y="0">aux</tspan></text><text class="af" transform="translate(912.66 283.56) scale(.79 1)"><tspan class="f" x="0" y="0">F</tspan><tspan x="19.33" y="0">abric</tspan><tspan class="q" x="103.61" y="0">a</tspan><tspan class="aa" x="123.59" y="0">tion de p</tspan><tspan class="ae" x="268.7" y="0">r</tspan><tspan x="282.67" y="0">oduits à base de tabac - Cad</tspan><tspan class="h" x="752.71" y="0">r</tspan><tspan x="766.68" y="0">e supérieur et m</tspan><tspan class="l" x="1038.08" y="0">o</tspan><tspan class="v" x="1058.02" y="0">y</tspan><tspan x="1076.63" y="0">en</tspan></text><text class="af" transform="translate(181.85 368.56) scale(.79 1)"><tspan x="0" y="0"> </tspan><tspan class="e" x="8.5" y="0">F</tspan><tspan class="n" x="27.83" y="0">abric</tspan><tspan class="u" x="112.1" y="0">a</tspan><tspan x="132.08" y="0">tion de p</tspan><tspan class="ae" x="277.19" y="0">r</tspan><tspan class="aa" x="291.16" y="0">oduits à base de tabac - Cad</tspan><tspan class="ae" x="761.21" y="0">r</tspan><tspan x="775.17" y="0">e in</tspan><tspan class="u" x="834.86" y="0">f</tspan><tspan x="847.32" y="0">érieur</tspan></text><text class="af" transform="translate(684.81 475.56) scale(.79 1)"><tspan class="f" x="0" y="0">F</tspan><tspan x="19.33" y="0">abric</tspan><tspan class="q" x="103.61" y="0">a</tspan><tspan class="aa" x="123.59" y="0">tion de p</tspan><tspan class="ae" x="268.7" y="0">r</tspan><tspan x="282.67" y="0">oduits à base de tabac - </tspan><tspan class="m" x="687.88" y="0">R</tspan><tspan x="711.24" y="0">esponsable de l</tspan><tspan class="g" x="971.95" y="0">&apos;</tspan><tspan class="ad" x="980.59" y="0">ex</tspan><tspan x="1019.18" y="0">écution des t</tspan><tspan class="y" x="1233.84" y="0">r</tspan><tspan class="k" x="1247.6" y="0">av</tspan><tspan x="1285.94" y="0">aux</tspan></text><text class="af" transform="translate(65.55 592.1) scale(.79 1)"><tspan class="f" x="0" y="0">F</tspan><tspan x="19.33" y="0">abric</tspan><tspan class="q" x="103.61" y="0">a</tspan><tspan class="aa" x="123.59" y="0">tion de p</tspan><tspan class="ae" x="268.7" y="0">r</tspan><tspan x="282.67" y="0">oduits à base de tabac - Sans </tspan><tspan class="r" x="777.62" y="0">f</tspan><tspan x="790.08" y="0">onction de cad</tspan><tspan class="h" x="1033.69" y="0">r</tspan><tspan x="1047.65" y="0">e</tspan></text><text class="af" transform="translate(898.47 664.1) scale(.79 1)"><tspan x="0" y="0"> </tspan><tspan class="e" x="8.5" y="0">F</tspan><tspan class="n" x="27.83" y="0">abric</tspan><tspan class="u" x="112.1" y="0">a</tspan><tspan x="132.08" y="0">tion de m</tspan><tspan class="u" x="287.56" y="0">at</tspan><tspan x="320.86" y="0">ériels de t</tspan><tspan class="p" x="485.81" y="0">r</tspan><tspan x="499.56" y="0">anspo</tspan><tspan class="i" x="600.69" y="0">r</tspan><tspan class="n" x="614.98" y="0">t - Cad</tspan><tspan class="h" x="724.74" y="0">r</tspan><tspan x="738.71" y="0">e in</tspan><tspan class="u" x="798.4" y="0">f</tspan><tspan x="810.85" y="0">érieur</tspan></text><text class="af" transform="translate(0 781.1) scale(.79 1)"><tspan class="f" x="0" y="0">F</tspan><tspan x="19.33" y="0">abric</tspan><tspan class="q" x="103.61" y="0">a</tspan><tspan class="aa" x="123.59" y="0">tion de m</tspan><tspan class="u" x="279.07" y="0">at</tspan><tspan class="n" x="312.37" y="0">ériels de t</tspan><tspan class="y" x="477.32" y="0">r</tspan><tspan class="n" x="491.07" y="0">anspo</tspan><tspan class="j" x="592.19" y="0">r</tspan><tspan class="aa" x="606.48" y="0">t - </tspan><tspan class="m" x="651.41" y="0">R</tspan><tspan x="674.77" y="0">esponsable de l</tspan><tspan class="d" x="935.48" y="0">&apos;</tspan><tspan class="ad" x="944.12" y="0">ex</tspan><tspan class="s" x="982.71" y="0">écution des t</tspan><tspan class="y" x="1197.38" y="0">r</tspan><tspan class="k" x="1211.13" y="0">av</tspan><tspan x="1249.47" y="0">aux</tspan></text><text class="af" transform="translate(748.04 933.1) scale(.79 1)"><tspan x="0" y="0">Activi</tspan><tspan class="u" x="94.86" y="0">t</tspan><tspan x="108.18" y="0">és de po</tspan><tspan class="t" x="246.78" y="0">s</tspan><tspan class="w" x="264.45" y="0">t</tspan><tspan x="277.77" y="0">e et de </tspan><tspan class="ab" x="398.59" y="0">c</tspan><tspan x="416.87" y="0">ourrier - Cad</tspan><tspan class="ae" x="627.07" y="0">r</tspan><tspan x="641.04" y="0">e supérieur et m</tspan><tspan class="k" x="912.44" y="0">o</tspan><tspan class="o" x="932.39" y="0">y</tspan><tspan x="951" y="0">en</tspan></text></g></g></svg>