<?xml version="1.0" encoding="UTF-8"?><svg xmlns="http://www.w3.org/2000/svg" viewBox="0 0 1830.27 946.98"><defs><style>.d{font-family:Arial-BoldMT, Arial;font-size:36px;}</style></defs><g id="a"/><g id="b"><g id="c"><text class="d" transform="translate(131.65 90.93) scale(.79 1)"><tspan x="0" y="0">Industries extractives - Cadre supérieur et moyen</tspan></text><text class="d" transform="translate(662.32 173.88) scale(.79 1)"><tspan x="0" y="0">Industries extractives - Cadre inférieur</tspan></text><text class="d" transform="translate(951.66 30.88) scale(.79 1)"><tspan x="0" y="0">Industries extractives - Responsable de l&apos;exécution des travaux</tspan></text><text class="d" transform="translate(912.66 283.88) scale(.79 1)"><tspan x="0" y="0">Fabrication de produits à base de tabac - Cadre supérieur et moyen</tspan></text><text class="d" transform="translate(181.85 368.88) scale(.79 1)"><tspan x="0" y="0" xml:space="preserve"> Fabrication de produits à base de tabac - Cadre inférieur</tspan></text><text class="d" transform="translate(684.81 475.88) scale(.79 1)"><tspan x="0" y="0">Fabrication de produits à base de tabac - Responsable de l&apos;exécution des travaux</tspan></text><text class="d" transform="translate(65.55 592.42) scale(.79 1)"><tspan x="0" y="0">Fabrication de produits à base de tabac - Sans fonction de cadre</tspan></text><text class="d" transform="translate(898.47 664.42) scale(.79 1)"><tspan x="0" y="0" xml:space="preserve"> Fabrication de matériels de transport - Cadre inférieur</tspan></text><text class="d" transform="translate(0 781.42) scale(.79 1)"><tspan x="0" y="0">Fabrication de matériels de transport - Responsable de l&apos;exécution des travaux</tspan></text><text class="d" transform="translate(748.04 933.42) scale(.79 1)"><tspan x="0" y="0">Activités de poste et de courrier - Cadre supérieur et moyen</tspan></text></g></g></svg>